<?xml version="1.0" standalone="no"?>
<!DOCTYPE svg PUBLIC "-//W3C//DTD SVG 20010904//EN"
 "http://www.w3.org/TR/2001/REC-SVG-20010904/DTD/svg10.dtd">
<svg version="1.0" xmlns="http://www.w3.org/2000/svg"
 width="623.000000pt" height="623.000000pt" viewBox="0 0 623.000000 623.000000"
 preserveAspectRatio="xMidYMid meet">
<metadata>
Created by potrace 1.14, written by Peter Selinger 2001-2017
</metadata>
<g transform="translate(0.000000,623.000000) scale(0.100000,-0.100000)"
fill="#000000" stroke="none">
<path d="M4472 5861 c-39 -67 -143 -181 -221 -241 -60 -45 -161 -97 -219 -111
-20 -5 -44 -11 -52 -13 -8 -3 -69 -16 -135 -31 -177 -40 -289 -89 -396 -171
-121 -93 -177 -199 -194 -369 -10 -112 -49 -170 -161 -243 -242 -156 -355
-252 -472 -400 -149 -187 -239 -352 -305 -557 -40 -124 -97 -371 -97 -418 0
-36 -9 -31 -16 9 -16 102 -42 194 -82 294 -54 136 -62 203 -37 282 10 29 22
59 28 66 5 6 7 12 3 12 -3 0 -1 12 5 27 16 43 18 172 2 237 -40 175 -208 347
-463 475 -136 69 -194 111 -303 219 -90 89 -161 188 -218 303 -22 45 -42 79
-45 76 -21 -21 -114 -348 -140 -492 -29 -164 -38 -366 -21 -503 20 -167 94
-364 181 -485 178 -249 423 -316 711 -196 80 33 109 32 144 -5 40 -42 80 -178
97 -326 3 -30 8 -264 9 -520 2 -256 5 -481 8 -500 2 -19 7 -62 11 -95 4 -33 8
-71 11 -85 2 -14 7 -47 10 -75 3 -27 8 -57 10 -65 2 -8 6 -33 10 -55 3 -22 7
-47 10 -55 2 -8 6 -31 9 -50 3 -20 12 -65 21 -100 9 -36 18 -75 21 -88 11 -52
69 -214 111 -307 24 -55 47 -106 50 -114 11 -26 -57 22 -91 64 -42 52 -112
170 -158 265 -195 408 -273 538 -401 665 -95 96 -105 109 -112 160 -34 231
-140 365 -354 448 -137 53 -316 68 -452 38 -24 -5 -55 -12 -69 -15 -14 -3 -56
-13 -95 -21 -117 -27 -146 -30 -255 -30 -95 0 -110 3 -155 27 -62 33 -103 63
-167 124 l-50 47 6 -62 c25 -257 141 -556 290 -749 164 -214 446 -371 669
-375 216 -3 338 61 539 282 38 42 52 51 80 51 43 0 67 -18 121 -88 88 -115
154 -248 235 -477 51 -145 113 -270 183 -375 134 -198 287 -310 460 -335 30
-4 55 -17 79 -39 287 -269 692 -421 1095 -411 83 2 168 7 190 11 82 13 212 56
317 105 148 69 165 71 269 21 46 -22 100 -44 119 -49 65 -18 200 -15 280 6
144 37 220 97 477 377 155 169 233 214 385 220 66 3 103 -1 148 -15 l61 -19
-7 21 c-26 87 -141 225 -253 304 -107 76 -291 147 -434 168 -23 4 -62 10 -87
15 -72 13 -296 5 -375 -14 -175 -43 -314 -116 -418 -222 -131 -134 -162 -242
-142 -484 9 -115 1 -129 -99 -178 -136 -66 -318 -96 -476 -79 -304 34 -565
144 -702 295 -139 154 -215 412 -196 661 14 177 98 414 180 506 67 77 113 80
201 14 74 -56 182 -107 250 -117 292 -44 617 141 800 458 29 50 82 203 92 265
27 168 27 431 0 575 -2 8 -9 50 -16 93 -7 42 -15 77 -18 77 -4 -1 -21 -25 -40
-55 -38 -59 -149 -174 -223 -230 -87 -65 -182 -105 -351 -146 -231 -56 -343
-102 -462 -190 -66 -48 -96 -82 -139 -153 -38 -63 -52 -117 -60 -239 -7 -106
-29 -147 -128 -247 -88 -88 -135 -154 -181 -253 -31 -66 -71 -199 -81 -267 -8
-55 -8 -219 -1 -269 l6 -36 -16 28 c-40 69 -113 318 -131 442 -3 28 -8 59 -10
70 -24 120 -23 492 1 655 12 85 21 139 30 178 3 12 7 32 10 43 15 68 61 215
90 285 142 344 370 596 670 744 178 88 273 112 470 116 88 2 179 -1 203 -6 23
-6 59 -13 80 -16 53 -8 195 -56 277 -95 215 -99 441 -280 581 -464 54 -72 184
-334 191 -386 5 -31 -3 -51 -46 -124 -111 -189 -123 -348 -39 -508 59 -112
213 -248 388 -344 225 -122 432 -318 541 -510 13 -24 27 -43 30 -43 15 0 99
312 118 440 5 36 13 83 16 105 18 104 12 346 -10 451 -3 13 -7 36 -10 52 -10
49 -46 154 -75 218 -50 112 -121 205 -205 270 -132 103 -321 134 -477 79 -95
-33 -101 -34 -116 -22 -6 5 -50 87 -96 181 -116 234 -167 320 -278 466 -227
299 -558 499 -901 547 -110 16 -291 8 -400 -17 -23 -5 -56 -11 -73 -14 -59
-11 -237 -77 -327 -123 -129 -64 -238 -144 -347 -253 -105 -105 -165 -184
-253 -335 -64 -110 -61 -112 -41 25 27 183 83 385 139 500 109 227 315 478
497 606 127 90 191 86 273 -15 41 -51 111 -107 171 -137 83 -41 148 -54 248
-49 116 4 145 10 233 47 197 81 355 239 453 452 33 70 46 110 66 201 25 110
25 531 -1 625 -2 8 -7 35 -10 60 -3 25 -10 61 -15 80 -9 33 -18 75 -19 93 -2
19 -19 1 -49 -52z m19 -193 c0 -13 3 -32 6 -43 9 -40 12 -351 3 -405 -5 -30
-12 -68 -14 -85 -27 -162 -149 -369 -287 -487 -156 -132 -358 -181 -531 -128
-122 38 -220 134 -184 182 17 23 44 34 151 61 267 68 437 146 513 237 39 47
74 104 92 151 17 46 17 50 2 29 -104 -150 -314 -259 -637 -330 -150 -33 -167
-34 -194 -12 -20 16 -24 27 -23 79 1 131 68 245 195 332 87 60 187 97 337 127
198 39 393 142 514 269 47 50 56 53 57 23z m-3346 -625 c65 -120 161 -233 262
-311 22 -18 110 -73 195 -123 245 -145 339 -226 392 -333 60 -122 53 -263 -16
-321 -39 -33 -57 -27 -134 44 -33 32 -110 88 -170 126 -270 171 -319 222 -396
405 -25 58 -27 62 -28 32 0 -45 34 -144 77 -221 48 -86 183 -219 313 -308 197
-136 233 -190 167 -250 -37 -35 -118 -53 -225 -50 -87 3 -104 7 -166 37 -98
48 -189 142 -249 256 -44 87 -89 220 -102 301 -3 21 -8 50 -10 63 -27 132 -20
385 15 565 5 28 11 61 14 75 6 36 18 80 21 80 2 0 20 -30 40 -67z m3130 -1955
c31 -338 -48 -576 -261 -791 -187 -189 -417 -265 -593 -198 -104 39 -146 85
-121 131 14 26 28 33 167 81 269 94 464 234 542 388 41 81 33 84 -34 12 -88
-93 -171 -155 -271 -202 -73 -35 -267 -105 -316 -114 -11 -2 -29 -7 -41 -11
-78 -25 -172 -3 -183 43 -16 62 28 179 91 245 90 94 260 176 425 204 64 11
202 60 275 96 97 49 172 100 245 166 35 32 57 46 62 38 3 -6 9 -46 13 -88z
m1305 -189 c57 -11 140 -52 186 -92 15 -12 45 -47 69 -77 85 -111 139 -249
170 -435 17 -103 12 -347 -9 -460 -4 -16 -8 -43 -11 -60 -9 -49 -47 -175 -54
-175 -3 0 -14 17 -23 38 -72 155 -210 295 -448 454 -187 125 -256 184 -307
262 -50 76 -67 137 -60 226 5 81 17 113 50 143 29 25 37 22 75 -28 82 -108
194 -196 349 -274 116 -59 172 -110 221 -203 l33 -63 -5 55 c-14 142 -75 220
-244 310 -117 62 -191 124 -245 202 -75 108 -67 142 40 169 82 20 140 22 213
8z m-5453 -136 c23 -21 80 -53 122 -68 106 -37 214 -36 388 4 277 64 438 71
563 26 171 -61 331 -257 269 -331 -13 -16 -63 -16 -129 1 -102 25 -223 25
-390 -2 -57 -9 -184 -9 -230 0 -63 11 -163 47 -208 73 l-45 26 19 -25 c29 -39
120 -95 189 -116 88 -27 148 -34 345 -36 197 -2 227 -7 288 -42 134 -77 59
-245 -139 -311 -116 -39 -316 -24 -448 34 -139 62 -331 221 -431 358 -80 111
-155 261 -194 395 -17 56 -14 57 31 14z m5123 -1318 c240 -40 435 -124 558
-238 17 -17 32 -33 32 -36 0 -4 -24 -5 -54 -5 -106 3 -217 -31 -313 -96 -32
-22 -128 -108 -213 -192 -130 -128 -167 -159 -230 -190 -173 -87 -342 -90
-400 -8 -46 64 -14 126 150 290 85 86 119 113 180 142 81 40 178 68 231 68 60
0 16 20 -52 24 -167 9 -351 -73 -539 -240 -90 -80 -113 -91 -147 -69 -45 30
-55 101 -27 194 31 104 103 185 229 256 158 90 408 132 595 100z"/>
</g>
</svg>
