<?xml version="1.0" encoding="UTF-8" standalone="no"?>
<svg width="11.2889mm" height="11.2889mm"
 viewBox="0 0 32 32"
 xmlns="http://www.w3.org/2000/svg" xmlns:xlink="http://www.w3.org/1999/xlink"  version="1.2" baseProfile="tiny">
<title>Qt SVG Document</title>
<desc>Generated with Qt</desc>
<defs>
</defs>
<g fill="none" stroke="black" stroke-width="1" fill-rule="evenodd" stroke-linecap="square" stroke-linejoin="bevel" >

<g fill="#ffffff" fill-opacity="1" stroke="#232323" stroke-opacity="1" stroke-width="1" stroke-linecap="square" stroke-linejoin="bevel" transform="matrix(1,0,0,1,0,0)"
font-family=".AppleSystemUIFont" font-size="13" font-weight="400" font-style="normal" 
>
<path vector-effect="non-scaling-stroke" fill-rule="evenodd" d="M30.1732,16 C30.1732,23.8277 23.8277,30.1732 16,30.1732 C8.17234,30.1732 1.82677,23.8277 1.82677,16 C1.82677,8.17234 8.17234,1.82677 16,1.82677 C23.8277,1.82677 30.1732,8.17234 30.1732,16 "/>
</g>

<g fill="#10200c" fill-opacity="1" stroke="#10200c" stroke-opacity="1" stroke-width="0.566929" stroke-linecap="square" stroke-linejoin="bevel" transform="matrix(1,0,0,1,0,0)"
font-family=".AppleSystemUIFont" font-size="13" font-weight="400" font-style="normal" 
>
<path vector-effect="none" fill-rule="evenodd" d="M13.7089,12.8466 L6.29473,12.8466 L12.2929,17.2045 L10.0018,24.2558 L16,19.8979 L21.9982,24.2558 L19.7071,17.2045 L25.7053,12.8466 L18.2911,12.8466 L16,5.79528 L13.7089,12.8466"/>
</g>
</g>
</svg>
