<?xml version="1.0" encoding="UTF-8" standalone="no"?>
<svg width="11.2889mm" height="11.2889mm"
 viewBox="0 0 32 32"
 xmlns="http://www.w3.org/2000/svg" xmlns:xlink="http://www.w3.org/1999/xlink"  version="1.2" baseProfile="tiny">
<title>Qt SVG Document</title>
<desc>Generated with Qt</desc>
<defs>
</defs>
<g fill="none" stroke="black" stroke-width="1" fill-rule="evenodd" stroke-linecap="square" stroke-linejoin="bevel" >

<g fill="#ffffff" fill-opacity="1" stroke="#232323" stroke-opacity="1" stroke-width="1" stroke-linecap="square" stroke-linejoin="bevel" transform="matrix(1,0,0,1,0,0)"
font-family=".AppleSystemUIFont" font-size="13" font-weight="400" font-style="normal" 
>
<path vector-effect="non-scaling-stroke" fill-rule="evenodd" d="M30.1732,16 C30.1732,23.8277 23.8277,30.1732 16,30.1732 C8.17234,30.1732 1.82677,23.8277 1.82677,16 C1.82677,8.17234 8.17234,1.82677 16,1.82677 C23.8277,1.82677 30.1732,8.17234 30.1732,16 "/>
</g>

<g fill="#ffffff" fill-opacity="1" stroke="#232323" stroke-opacity="1" stroke-width="1" stroke-linecap="square" stroke-linejoin="bevel" transform="matrix(1,0,0,1,16,16)"
font-family=".AppleSystemUIFont" font-size="13" font-weight="400" font-style="normal" 
>
</g>

<g fill="#ffffff" fill-opacity="1" stroke="#232323" stroke-opacity="1" stroke-width="1" stroke-linecap="square" stroke-linejoin="bevel" transform="matrix(1,0,0,1,16,16)"
font-family=".AppleSystemUIFont" font-size="13" font-weight="400" font-style="normal" 
>
</g>

<g fill="#000000" fill-opacity="1" stroke="none" transform="matrix(1.32283,0,0,1.32283,6.07874,6.07874)"
font-family=".AppleSystemUIFont" font-size="13" font-weight="400" font-style="normal" 
>
<path vector-effect="none" fill-rule="nonzero" d="M9.38,1.96 C9.38,2.76 8.68,3.42 7.81,3.42 C6.95,3.42 6.25,2.76 6.25,1.96 C6.25,1.15 6.95,0.5 7.81,0.5 C8.68,0.5 9.38,1.15 9.38,1.96 M6.25,4 L6.88,4 L7.19,4 L12.5,7.79 L12.5,8.67 L11.88,8.67 L8.75,6.41 L8.75,8.67 L10,11 L11.25,13.92 L10.63,14.5 L10,14.5 L8.75,11.58 L6.25,8.08 L6.25,5.37 L4.69,6.63 L3.44,8.67 L2.5,8.67 L2.5,8.08 L3.44,6.33 L6.25,4 M6.78,10.07 L5.33,14.5 L4.69,14.5 L4.06,13.92 L5.82,8.99 L6.78,10.07"/>
</g>

<g fill="#ffffff" fill-opacity="1" stroke="#232323" stroke-opacity="1" stroke-width="1" stroke-linecap="square" stroke-linejoin="bevel" transform="matrix(1,0,0,1,16,16)"
font-family=".AppleSystemUIFont" font-size="13" font-weight="400" font-style="normal" 
>
</g>

<g fill="#ffffff" fill-opacity="1" stroke="#232323" stroke-opacity="1" stroke-width="1" stroke-linecap="square" stroke-linejoin="bevel" transform="matrix(1,0,0,1,16,16)"
font-family=".AppleSystemUIFont" font-size="13" font-weight="400" font-style="normal" 
>
</g>

<g fill="#ffffff" fill-opacity="1" stroke="#232323" stroke-opacity="1" stroke-width="1" stroke-linecap="square" stroke-linejoin="bevel" transform="matrix(1,0,0,1,0,0)"
font-family=".AppleSystemUIFont" font-size="13" font-weight="400" font-style="normal" 
>
</g>
</g>
</svg>
