<?xml version="1.0" encoding="UTF-8" standalone="no"?>
<svg width="11.2889mm" height="11.2889mm"
 viewBox="0 0 32 32"
 xmlns="http://www.w3.org/2000/svg" xmlns:xlink="http://www.w3.org/1999/xlink"  version="1.2" baseProfile="tiny">
<title>Qt SVG Document</title>
<desc>Generated with Qt</desc>
<defs>
</defs>
<g fill="none" stroke="black" stroke-width="1" fill-rule="evenodd" stroke-linecap="square" stroke-linejoin="bevel" >

<g fill="#ffffff" fill-opacity="1" stroke="#232323" stroke-opacity="1" stroke-width="1" stroke-linecap="square" stroke-linejoin="bevel" transform="matrix(1,0,0,1,0,0)"
font-family=".AppleSystemUIFont" font-size="13" font-weight="400" font-style="normal" 
>
<path vector-effect="non-scaling-stroke" fill-rule="evenodd" d="M30.1732,16 C30.1732,23.8277 23.8277,30.1732 16,30.1732 C8.17234,30.1732 1.82677,23.8277 1.82677,16 C1.82677,8.17234 8.17234,1.82677 16,1.82677 C23.8277,1.82677 30.1732,8.17234 30.1732,16 "/>
</g>

<g fill="#ffffff" fill-opacity="1" stroke="#232323" stroke-opacity="1" stroke-width="1" stroke-linecap="square" stroke-linejoin="bevel" transform="matrix(1,0,0,1,16,16)"
font-family=".AppleSystemUIFont" font-size="13" font-weight="400" font-style="normal" 
>
</g>

<g fill="#ffffff" fill-opacity="1" stroke="#232323" stroke-opacity="1" stroke-width="1" stroke-linecap="square" stroke-linejoin="bevel" transform="matrix(1,0,0,1,16,16)"
font-family=".AppleSystemUIFont" font-size="13" font-weight="400" font-style="normal" 
>
</g>

<g fill="#000000" fill-opacity="1" stroke="none" transform="matrix(1.32283,0,0,1.32283,6.07874,6.07874)"
font-family=".AppleSystemUIFont" font-size="13" font-weight="400" font-style="normal" 
>
<path vector-effect="none" fill-rule="nonzero" d="M11,5 C11.55,5 12,5.45 12,6 L12,9 L11,9 L11,10 C11,10.55 10.55,11 10,11 C9.45,11 9,10.55 9,10 L9,9 L6,9 L6,10 C6,10.55 5.55,11 5,11 C4.45,11 4,10.55 4,10 L4,9 L3,9 L3,6 C3,5.45 3.45,5 4,5 L4.89,2.34 C4.96,2.14 5.15,2 5.36,2 L9.64,2 C9.85,2 10.04,2.14 10.11,2.34 L11,5 M5,8 C5.55,8 6,7.55 6,7 C6,6.45 5.55,6 5,6 C4.45,6 4,6.45 4,7 C4,7.55 4.45,8 5,8 M5,5 L10,5 L9.38,3 L5.62,3 L5,5 M10,8 C10.55,8 11,7.55 11,7 C11,6.45 10.55,6 10,6 C9.45,6 9,6.45 9,7 C9,7.55 9.45,8 10,8 M11.5,12 L11,11 L13,11 L14,13 L1,13 L2,11 L4,11 L3.5,12 L11.5,12"/>
</g>

<g fill="#ffffff" fill-opacity="1" stroke="#232323" stroke-opacity="1" stroke-width="1" stroke-linecap="square" stroke-linejoin="bevel" transform="matrix(1,0,0,1,16,16)"
font-family=".AppleSystemUIFont" font-size="13" font-weight="400" font-style="normal" 
>
</g>

<g fill="#ffffff" fill-opacity="1" stroke="#232323" stroke-opacity="1" stroke-width="1" stroke-linecap="square" stroke-linejoin="bevel" transform="matrix(1,0,0,1,16,16)"
font-family=".AppleSystemUIFont" font-size="13" font-weight="400" font-style="normal" 
>
</g>

<g fill="#ffffff" fill-opacity="1" stroke="#232323" stroke-opacity="1" stroke-width="1" stroke-linecap="square" stroke-linejoin="bevel" transform="matrix(1,0,0,1,0,0)"
font-family=".AppleSystemUIFont" font-size="13" font-weight="400" font-style="normal" 
>
</g>
</g>
</svg>
